<svg width="15" height="15" viewBox="0 0 15 15" fill="none" xmlns="http://www.w3.org/2000/svg">
<g clip-path="url(#clip0)">
<path d="M10.5882 5.70358L4.43219 11.8596L3.77716 11.2046C3.8092 11.1836 3.84515 11.1696 3.87317 11.1416L9.9502 5.06455C10.1932 4.82059 10.1932 4.42557 9.9502 4.18155C9.70618 3.93655 9.31019 3.93655 9.06519 4.18155L2.98816 10.2576C2.96014 10.2856 2.94714 10.3216 2.92517 10.3526L2.27118 9.69858L8.42719 3.54257C8.67017 3.29855 8.67017 2.90256 8.42719 2.6586C8.18317 2.41458 7.7862 2.41458 7.54218 2.6586L0.944158 9.25656C0.940188 9.26156 0.938178 9.26755 0.934208 9.27255C0.922188 9.28555 0.916198 9.30154 0.906188 9.31558C0.854188 9.38058 0.816158 9.45456 0.793148 9.53659C0.789188 9.55154 0.777158 9.56155 0.773198 9.57657L0.0121479 13.3826C-0.0288021 13.5876 0.0351579 13.7996 0.183168 13.9476C0.302188 14.0656 0.461188 14.1306 0.625188 14.1306C0.666208 14.1306 0.707158 14.1266 0.748178 14.1186L4.55519 13.3566C4.56917 13.3546 4.57918 13.3416 4.59321 13.3376C4.6742 13.3156 4.74818 13.2776 4.81318 13.2266C4.82716 13.2156 4.84516 13.2096 4.8592 13.1966C4.86317 13.1916 4.87019 13.1906 4.87415 13.1866L11.4731 6.58756C11.7162 6.3436 11.7162 5.94761 11.4731 5.70359C11.2292 5.45956 10.8322 5.45956 10.5882 5.70358Z" fill="white"/>
<path d="M13.6555 2.1065L12.0245 0.475522C11.3895 -0.158507 10.3605 -0.158507 9.72546 0.475522L9.03149 1.16948C8.78845 1.41448 8.78845 1.80949 9.03149 2.05351L12.0765 5.09849C12.1985 5.2205 12.3585 5.28147 12.5185 5.28147C12.6785 5.28147 12.8395 5.2205 12.9615 5.09849L13.6545 4.40446C13.9625 4.09745 14.1315 3.68949 14.1315 3.25547C14.1315 2.82145 13.9625 2.4135 13.6555 2.1065Z" fill="white"/>
</g>
<defs>
<clipPath id="clip0">
<rect width="14.1315" height="14.1306" fill="white"/>
</clipPath>
</defs>
</svg>
