<svg width="206" height="42" viewBox="0 0 206 42" fill="none" xmlns="http://www.w3.org/2000/svg">
<path fill-rule="evenodd" clip-rule="evenodd" d="M167.805 26.1625L167.125 12.95L178.352 16.1L178.862 35.35L165.339 28.7875L163.808 12.075L165.509 12.6L166.87 27.3L177.076 32.025L176.736 17.5L168.911 15.1375L169.336 24.9375L174.014 26.8625L173.589 20.5625L171.888 19.8625V22.4L170.187 24.0625L169.932 17.4125L175.29 19.1625L175.885 29.75L167.805 26.1625ZM184.56 11.725V41.65L200.21 29.4L202.251 4.6375L184.56 11.725ZM199.104 28.35L186.006 38.5875L186.176 13.5625L200.805 7.6125L199.104 28.35Z" fill="#560DD0"/>
<path fill-rule="evenodd" clip-rule="evenodd" d="M180.903 2.45L171.548 4.8125L182.774 7.6125L195.022 3.675L180.648 1.225L168.316 3.9375L170.017 4.375L180.903 1.925L191.365 3.7625L182.434 6.825L174.524 4.9L181.329 3.15L185.411 3.85L181.924 5.3375L180.053 4.9L181.754 4.375L181.414 3.5875L176.821 4.8125L182.349 6.0375L188.898 3.85L180.903 2.45ZM18.2009 13.7375C18.2009 16.275 17.0102 17.5 14.5437 17.5H3.74224V25.1125H0V6.0375H14.5437C15.5643 6.0375 16.4148 6.3875 17.1803 7.175C17.8607 7.875 18.2859 8.8375 18.2859 9.8875V13.7375H18.2009ZM14.5437 13.7375V9.8875H3.74224V13.7375H14.5437ZM39.3786 25.1125H24.5797C23.474 25.1125 22.6235 24.7625 21.9431 24.0625C21.2627 23.3625 20.9225 22.4 20.9225 21.35V17.5C20.9225 16.3625 21.2627 15.4875 21.9431 14.7875C22.6235 14.0875 23.5591 13.7375 24.5797 13.7375H35.7214V9.8875H20.9225V6.125H35.7214C36.827 6.125 37.6775 6.475 38.358 7.175C39.0384 7.875 39.3786 8.8375 39.3786 9.8875V25.1125ZM35.7214 21.35V17.5H24.5797V21.35H35.7214ZM61.1516 25.1125H57.4094V9.8875H47.2032V25.1125H43.5461V6.0375H57.4094C59.8758 6.0375 61.1516 7.2625 61.1516 9.8V25.1125ZM82.7545 25.1125H68.2959C67.1902 25.1125 66.3397 24.7625 65.6593 24.0625C64.9789 23.3625 64.6387 22.4875 64.6387 21.35V9.8C64.6387 8.75 64.9789 7.875 65.7443 7.175C66.5098 6.475 67.3603 6.125 68.3809 6.125H79.0973V0.612503H82.7545V25.1125ZM79.0973 21.35V9.8875H68.2959V21.35H79.0973ZM105.293 15.6625C105.293 18.375 104.357 20.65 102.486 22.575C100.615 24.5 98.4039 25.4625 95.7673 25.4625C93.1307 25.4625 90.8344 24.5 88.9632 22.575C87.0921 20.65 86.1566 18.375 86.1566 15.6625C86.1566 12.95 87.0921 10.5875 88.9632 8.6625C90.8344 6.7375 93.1307 5.775 95.7673 5.775C98.4039 5.775 100.615 6.7375 102.486 8.6625C104.357 10.5875 105.293 12.8625 105.293 15.6625ZM101.636 15.6625C101.636 14 101.04 12.6 99.9348 11.375C98.8291 10.15 97.3833 9.625 95.7673 9.625C94.1513 9.625 92.7905 10.2375 91.5998 11.375C90.4091 12.6 89.8988 14 89.8988 15.6625C89.8988 17.325 90.4942 18.725 91.5998 19.95C92.7905 21.175 94.1513 21.7 95.7673 21.7C97.3833 21.7 98.7441 21.0875 99.9348 19.95C101.04 18.725 101.636 17.2375 101.636 15.6625ZM125.28 13.7375H121.538V9.8875H112.012V25.1125H108.355V6.0375H121.538C124.004 6.0375 125.28 7.2625 125.28 9.8V13.7375ZM145.522 25.1125H130.723C129.618 25.1125 128.767 24.7625 128.087 24.0625C127.406 23.3625 127.066 22.4 127.066 21.35V17.5C127.066 16.3625 127.406 15.4875 128.087 14.7875C128.767 14.0875 129.703 13.7375 130.723 13.7375H141.865V9.8875H127.066V6.125H141.865C142.971 6.125 143.821 6.475 144.501 7.175C145.182 7.875 145.522 8.8375 145.522 9.8875V25.1125ZM141.78 21.35V17.5H130.638V21.35H141.78ZM1.87112 35.35H2.72163L3.74224 31.5875V36.8375H4.5077V30.5375H3.40204L2.38143 34.3L1.36081 30.5375H0V36.8375H0.850509V31.5875L1.87112 35.35ZM9.5257 34.825L10.2912 31.675L11.0566 34.825H9.5257ZM11.1417 35.4375L11.4819 36.925H12.4174L10.8015 30.625H9.6958L8.07983 36.925H9.0154L9.3556 35.4375H11.1417ZM18.7112 33.8625C19.1365 33.8625 19.5617 33.6875 19.5617 32.9V31.5875C19.5617 30.975 19.3066 30.5375 18.6261 30.5375H15.9045V36.8375H16.755V33.95H17.9457L18.9664 36.8375H19.9019L18.7112 33.8625ZM18.371 31.4125C18.5411 31.4125 18.7112 31.5 18.7112 31.7625V32.8125C18.7112 33.075 18.6261 33.1625 18.371 33.1625H16.755V31.325H18.371V31.4125ZM25.2601 33.95C25.5153 33.95 25.6003 34.0375 25.6854 34.3875L26.706 36.925H27.7266L26.6209 34.125C26.5359 33.8625 26.3658 33.6875 26.1106 33.6C26.2807 33.5125 26.5359 33.3375 26.6209 33.1625L27.6415 30.625H26.706L25.8555 32.8125C25.7704 33.075 25.6003 33.25 25.4302 33.25H24.7498V30.625H23.8993V36.925H24.7498V33.95H25.2601ZM31.2987 30.625V36.925H34.6157V36.1375H32.1492V33.95H34.0204V33.1625H32.1492V31.325H34.2755C34.3606 31.325 34.4456 31.325 34.5307 31.4125V30.625H31.2987ZM40.144 31.4125H41.5048V30.5375H37.8476V31.4125H39.2085V36.925H40.059V31.4125H40.144ZM45.162 30.625V36.925H46.0125V30.625H45.162ZM52.9017 36.8375H53.8372V30.5375H53.0718V35.2625L51.1156 30.5375H50.18V36.8375H50.9455V32.1125L52.9017 36.8375ZM61.4918 35.875V33.25H59.6207V34.0375H60.6413V35.7875C60.6413 36.05 60.5562 36.1375 60.3011 36.1375H59.0253C58.8552 36.1375 58.6851 36.05 58.6851 35.7875V31.7625C58.6851 31.5 58.7702 31.4125 59.0253 31.4125H60.8964C61.0665 31.4125 61.1516 31.4125 61.2366 31.5V30.625H58.6851C58.0047 30.625 57.7496 31.0625 57.7496 31.675V35.9625C57.7496 36.575 58.0047 37.0125 58.6851 37.0125H60.3861C61.2366 36.8375 61.4918 36.4875 61.4918 35.875ZM84.2004 33.25V31.675C84.2004 31.0625 83.9452 30.625 83.2648 30.625H80.5432V36.925H81.3937V34.3H83.2648C83.9452 34.2125 84.2004 33.775 84.2004 33.25ZM83.3499 33.075C83.3499 33.3375 83.2648 33.425 83.0097 33.425H81.3937V31.4125H83.0097C83.1798 31.4125 83.3499 31.5 83.3499 31.7625V33.075ZM91.5998 35.875V30.625H90.7493V35.7875C90.7493 36.05 90.6643 36.1375 90.4091 36.1375H89.1333C88.9632 36.1375 88.7931 36.05 88.7931 35.7875V30.625H87.9426V35.875C87.9426 36.4875 88.1978 36.925 88.8782 36.925H90.5792C91.3447 36.8375 91.5998 36.4875 91.5998 35.875ZM99.3395 32.55V31.5875C99.3395 30.975 99.0843 30.5375 98.4039 30.5375H95.7673V36.8375H98.4039C99.0843 36.8375 99.3395 36.4 99.3395 35.7875V34.5625C99.3395 33.95 99.0843 33.5125 98.4039 33.5125C99.0843 33.6 99.3395 33.1625 99.3395 32.55ZM98.4889 31.675V32.8125C98.4889 33.075 98.4039 33.25 98.1487 33.25H96.5328V31.325H98.1487C98.3188 31.325 98.4889 31.5 98.4889 31.675ZM98.1487 36.1375H96.5328V33.95H98.1487C98.4039 33.95 98.4889 34.125 98.4889 34.3875V35.7875C98.4889 35.9625 98.3188 36.1375 98.1487 36.1375ZM104.187 30.625H103.337V36.925H106.654V36.1375H104.187V30.625ZM110.141 30.625V36.925H110.991V30.625H110.141ZM116.265 31.4125H118.051C118.221 31.4125 118.306 31.4125 118.391 31.5V30.625H116.009C115.329 30.625 115.074 31.0625 115.074 31.675V35.9625C115.074 36.575 115.329 37.0125 116.009 37.0125H118.391V36.1375C118.306 36.225 118.136 36.225 118.051 36.225H116.265C116.094 36.225 115.924 36.1375 115.924 35.875V31.7625C115.924 31.5 116.094 31.4125 116.265 31.4125ZM122.048 30.625V36.925H122.899V30.625H122.048ZM129.447 36.05H127.832V31.325H129.447C129.618 31.325 129.788 31.4125 129.788 31.675V35.6125C129.788 35.9625 129.618 36.05 129.447 36.05ZM129.703 36.8375C130.383 36.8375 130.638 36.4 130.638 35.7875V31.5C130.638 30.8875 130.383 30.45 129.703 30.45H126.981V36.75H129.703V36.8375ZM135.486 34.825L136.252 31.675L137.017 34.825H135.486ZM137.102 35.4375L137.442 36.925H138.378L136.762 30.625H135.656L134.04 36.925H134.976L135.316 35.4375H137.102ZM144.331 36.05H142.715V31.325H144.331C144.501 31.325 144.672 31.4125 144.672 31.675V35.6125C144.672 35.9625 144.587 36.05 144.331 36.05ZM144.587 36.8375C145.267 36.8375 145.522 36.4 145.522 35.7875V31.5C145.522 30.8875 145.267 30.45 144.587 30.45H141.865V36.75H144.587V36.8375ZM70.8474 32.6375C71.1026 32.4625 71.2727 32.2875 71.3577 32.1125C71.4428 31.9375 71.5278 31.675 71.5278 31.5C71.5278 31.2375 71.4428 31.15 71.3577 30.975C71.2727 30.8875 71.1026 30.8 70.9324 30.8C70.7623 30.8 70.5922 30.8875 70.5072 30.975C70.4221 31.0625 70.3371 31.2375 70.3371 31.5C70.3371 31.675 70.4221 31.85 70.5072 32.025C70.5922 32.2 70.6773 32.375 70.8474 32.6375ZM72.0381 35.7L70.5922 33.5125C70.252 33.6875 70.0819 33.95 69.9118 34.2125C69.7417 34.475 69.6567 34.7375 69.6567 35C69.6567 35.35 69.7417 35.7 69.9969 35.9625C70.252 36.225 70.5072 36.3125 70.8474 36.3125C71.1026 36.3125 71.2727 36.225 71.4428 36.1375C71.783 36.05 71.9531 35.875 72.0381 35.7ZM72.8886 36.8375L72.4634 36.1375C72.2933 36.4 72.0381 36.575 71.6979 36.75C71.4428 36.925 71.1025 36.925 70.7623 36.925C70.252 36.925 69.8268 36.75 69.4866 36.4C69.1464 36.05 68.9763 35.525 68.9763 35C68.9763 34.5625 69.0613 34.2125 69.3165 33.8625C69.4866 33.5125 69.8268 33.25 70.3371 32.9875C70.167 32.725 69.9969 32.4625 69.9118 32.2C69.8268 31.9375 69.7417 31.675 69.7417 31.5C69.7417 31.0625 69.8268 30.8 70.0819 30.5375C70.3371 30.275 70.6773 30.1875 71.0175 30.1875C71.3577 30.1875 71.6979 30.275 71.9531 30.5375C72.2082 30.8 72.2933 31.0625 72.2933 31.5C72.2933 31.85 72.2082 32.1125 72.0381 32.375C71.868 32.6375 71.6129 32.9 71.1876 33.1625L72.4634 35.0875C72.5484 34.9125 72.5484 34.7375 72.5484 34.5625C72.5484 34.3875 72.6335 34.125 72.6335 33.8625H73.3139C73.3139 34.2125 73.2288 34.5625 73.1438 34.9125C73.0587 35.2625 72.9737 35.525 72.8036 35.7L73.6541 37.0125H72.8886V36.8375Z" fill="#560DD0"/>
<path fill-rule="evenodd" clip-rule="evenodd" d="M162.702 30.7125L181.924 41.65V11.725L160.151 6.03751L162.702 30.7125ZM164.063 29.575L161.937 8.92501L180.053 13.65L180.308 38.7625L164.063 29.575Z" fill="#560DD0"/>
<path fill-rule="evenodd" clip-rule="evenodd" d="M196.042 25.2L196.638 11.9875L187.537 15.8375L187.197 35.0875L198.084 27.65L199.359 10.85L197.913 11.4625L196.893 26.3375L188.558 31.675L188.813 17.15L195.192 14.2625L194.852 24.0625L191.024 26.3375L191.365 19.95L192.81 19.1625V21.7L194.171 23.275L194.341 16.625L190.089 18.725L189.578 29.3125L196.042 25.2ZM179.798 0L161.342 4.025L183.285 9.625L201.23 3.325L179.798 0ZM183.115 8.75L164.659 4.025L180.138 0.7L197.743 3.325L183.115 8.75Z" fill="#560DD0"/>
</svg>
